# xmcd
#
# Track frame offsets: 
#        150
#        5247
#        35082
#        54934
#        71861
#        107243
#        139366
#        169216
#        188185
#        205774
#        231860
#
# Disc length: 3501 seconds
#
# Revision: 0
# Processed by: cddbd v1.5.2PL0 Copyright (c) Steve Scherf et al.
# Submitted via: ExactAudioCopy v1.3
#
DISCID=a60dab0b
DTITLE=Joe Bonamassa - Live Beacon Theatre Part 1 live
DYEAR=2012
DGENRE=Blues
TTITLE0=72nd St. Subway Blues 
TTITLE1=Slow Train
TTITLE2=Cradle Rock
TTITLE3=When the fire hits the sea
TTITLE4=Midnight Blues
TTITLE5=Dust Bowl
TTITLE6=The River
TTITLE7=You better watch xourself
TTITLE8=Steal your heart away
TTITLE9=Bird on a wire
TTITLE10=Blue and Evil
EXTD=
EXTT0=
EXTT1=
EXTT2=
EXTT3=
EXTT4=
EXTT5=
EXTT6=
EXTT7=
EXTT8=
EXTT9=
EXTT10=
PLAYORDER=
